<!DOCTYPE svg PUBLIC "-//W3C//DTD SVG 1.1//EN" "http://www.w3.org/Graphics/SVG/1.1/DTD/svg11.dtd">
<!-- Uploaded to: SVG Repo, www.svgrepo.com, Transformed by: SVG Repo Mixer Tools -->
<svg fill="#35373b" width="800px" height="800px" viewBox="-2 -3 24 24" xmlns="http://www.w3.org/2000/svg" preserveAspectRatio="xMinYMin" class="jam jam-calendar">
<g id="SVGRepo_bgCarrier" stroke-width="0"/>
<g id="SVGRepo_tracerCarrier" stroke-linecap="round" stroke-linejoin="round"/>
<g id="SVGRepo_iconCarrier">
<path d="M18 7V5a1 1 0 0 0-1-1h-1v1a1 1 0 0 1-2 0V4H6v1a1 1 0 1 1-2 0V4H3a1 1 0 0 0-1 1v2h16zm0 2H2v6a1 1 0 0 0 1 1h14a1 1 0 0 0 1-1V9zm-2-7h1a3 3 0 0 1 3 3v10a3 3 0 0 1-3 3H3a3 3 0 0 1-3-3V5a3 3 0 0 1 3-3h1V1a1 1 0 1 1 2 0v1h8V1a1 1 0 0 1 2 0v1z"/>
</g>
</svg>